<?xml version="1.0" encoding="utf-8"?>
<!-- Generator: Adobe Illustrator 25.4.1, SVG Export Plug-In . SVG Version: 6.00 Build 0)  -->
<svg version="1.1" id="Layer_1" xmlns="http://www.w3.org/2000/svg" xmlns:xlink="http://www.w3.org/1999/xlink" x="0px" y="0px"
	 viewBox="0 0 1000 1000" style="enable-background:new 0 0 1000 1000;" xml:space="preserve">
<style type="text/css">
	.st0{fill:url(#SVGID_1_);}
</style>
<linearGradient id="SVGID_1_" gradientUnits="userSpaceOnUse" x1="549.629" y1="747.3942" x2="430.269" y2="170.923" gradientTransform="matrix(1 0 0 -1 0 1000)">
	<stop  offset="0" style="stop-color:#1EC9DB"/>
	<stop  offset="0.8803" style="stop-color:#662D91"/>
</linearGradient>
<path class="st0" d="M813.3,662.5c0-54.6,0-109.2,0-163.7c0-53.4-0.2-107.1,0.2-160.5c0-5.9-2.1-8.6-7.3-11.3
	c-9.2-4.4-18-9.4-26.8-14.4c-17.2-9.6-34.7-19-52.1-28.3c-16.9-9-33.7-18.2-50.6-27.2c-21.8-11.5-43.3-23.6-64.9-35.2
	c-28.2-15.1-56.3-30.3-84.6-45.4c-8.8-4.8-17.6-9.4-26.2-14.2c-1.9-1.1-3.6-1.3-5.9,0c-15.5,8.6-31,17-46.5,25.5
	c-27.2,14.7-54.4,29.3-81.6,43.9c-18.8,10.1-37.7,20.1-56.5,30.3c-21.6,11.9-43.1,23.6-64.5,35.2c-19.3,10.5-38.9,20.9-58.2,31.2
	c-3.3,1.7-5,4-4.8,7.9c0.2,6.3,0.4,12.6,0,18.8c-0.2,3.8,1.5,6.1,5.2,8c31.4,16.9,62.6,34.1,94,50.7c12.1,6.3,11.7,5.2,11.7,19.2
	c0,48.1,0,95.9,0,144c0,3.1-0.8,5.4-4.2,6.9c-5.7,2.7-11.3,6.1-16.9,9.2c-10.9,5.9-21.8,11.9-32.9,17.8c-2.1-2.3-1.5-4.2-1.5-5.9
	c0-14.6,0-29.1,0-43.7c-0.2-21.3,0-42.5-0.4-63.8c-0.2-12.3,0.2-24.5,0.4-36.6c0-11.9-0.2-23.7-0.2-35.8c0-2.7-1.5-4.2-3.8-5.4
	c-14.9-8.6-30.8-15.9-45.6-24.9c-2.9-1.7-5-0.6-5.2,2.7c-0.2,1.9-0.2,4-0.2,5.9c0,78.5,0,157.2,0,235.7c0,8.8,0.2,17.8,0.2,26.6
	c0,2.9,0.6,5.4,4,6.7c2.7,1,5.2,2.7,7.7,4c16.9,9.2,33.7,18.2,50.6,27.4c18,9.8,35.8,19.7,54,29.1c26.8,13.8,52.9,28.5,79.5,42.5
	c17,9,33.7,18.2,50.6,27.4c21.3,11.7,42.9,23,64.3,34.5c3.4,1.9,5.9,1.7,9.4,0c5-2.7,9.8-5.4,14.7-8c16.9-9,33.7-17.8,50.4-26.8
	c23-12.4,45.8-25.1,68.8-37.5c20.1-10.9,40.6-21.3,60.5-32.4c17.4-9.8,35.2-19,52.7-28.5c5-2.7,8-3.6,0.2-7.9
	c-13.8-7.3-27.4-14.6-41-22.2c-4.2-2.5-7.3-2.9-11.9-0.4c-15.9,8.8-32.2,17.2-48.3,25.9c-17.6,9.4-35.2,19-52.9,28.3
	c-16.7,9-33.1,18-49.8,27c-6.9,3.6-13.8,7.3-21.1,10.9c-1-1.9-0.6-3.8-0.6-5.6c0-26.2-0.2-52.3,0-78.5c0-3.4-1.1-5.7-4.4-7.3
	c-5.4-2.7-10.7-5.7-16.1-8.6c-15.9-8.6-31.8-17.2-47.7-25.9c-17.6-9.4-35.4-18.8-52.9-28.3c-3.1-1.7-5.6-1.9-8.6-0.2
	c-14.9,8.2-30.1,16.3-45.2,24.5c-1.3,0.8-2.5,1.5-2.5,3.6c5,3.3,10.5,5.9,16.1,9c17.2,9.2,34.5,18.6,51.5,27.8
	c17.4,9.4,34.9,18.8,52.3,28.2c2.7,1.3,3.8,3.4,3.8,6.3c-0.2,17,0,34.3,0,51.3c0,1.3,0.4,2.9-1.5,3.8
	c-67.8-36.8-136.2-73.2-204.7-110.3c1.9-1.3,2.9-1.9,3.8-2.5c7.5-4.6,15.5-8,23.2-12.4c11.3-6.7,23.4-12.6,35-19
	c16.5-8.8,33.1-17.6,49.6-26.6c22.8-12.3,45.8-24.5,68.6-36.8c16.7-9,33.5-17.6,49.8-27c2.1-1.1,3.6-1.3,5.7-0.2
	c17,9.2,34.3,18.2,51.3,27.6c24.3,13,48.3,26.4,72.6,39.3c28,14.9,55.7,30.1,83.9,44.8c12.8,6.7,25.3,13.8,37.9,20.7
	c12.1,6.5,24.3,12.8,36.4,19.5c2.5,1.3,4.2,1.3,6.7,0c6.3-3.4,12.8-6.7,19.2-10c3.1-1.5,4.8-3.6,4.4-6.9
	C813.1,665,813.3,663.8,813.3,662.5z M325.1,373.3c-2.7,1.5-5.2,2.1-8.2,0.6c-16.5-9-33.1-18-49.6-26.8c-0.4-0.2-0.8-0.6-1-1
	c2.7-3.3,198-108.4,204.7-110.3c1.1,1.1,0.8,2.7,0.8,3.8c0,16.3,0,32.4,0,48.6c0,4-1.1,6.7-5.4,8.8c-23,12.1-45.6,24.5-68.4,36.8
	C373.8,347.1,349.4,360.1,325.1,373.3z M467.4,487.8c-12.3,6.5-24.5,13.4-36.8,19.9c-17.6,9.4-35.2,19.2-53,28.3
	c-9.6,4.8-18.8,10.3-28.3,15.7c-1.5-2.5-1-4.6-1-6.5c0-40.2,0-80.4-0.2-120.6c0-3.8,1.5-6.1,5-7.9c19.2-9.6,37.7-20.5,56.7-30.6
	c18.6-10,37-19.9,55.3-29.9c5.6-3.1,6.5-2.5,6.5,3.6c0,29.5,0,59,0,88.5c0,10.7-0.2,21.4,0,32.2C471.8,484,470.7,486.1,467.4,487.8z
	 M757.7,611.1c-5-2.7-10.1-5.4-15.1-8c-19.2-10.3-38.3-20.7-57.6-31c-19.5-10.5-39.1-20.9-58.4-31.4c-23.4-12.6-46.7-25.5-70.3-38.1
	c-8.2-4.4-16.1-9.4-24.7-13c-3.6-1.5-6.3-3.8-6.1-8c0-2.1-0.4-4.2-0.4-6.3c0-77.2,0-154.4,0-231.7c0-2.5,0.2-5.2,0.4-8.8
	c68.9,37,136.9,73.7,205.7,110.5c-5.6,4.2-11.3,6.7-16.9,9.8c-11.3,6.1-22.6,12.1-33.9,18.4c-3.1,1.7-5.6,1.7-8.4,0.2
	c-12.3-6.7-24.7-13.2-37-19.7c-18.2-9.8-36.2-19.5-54.2-29.3c-6.5-3.4-13-7.1-19.5-10.5c-1.3-0.8-2.5-1.3-4-1.1
	c-1.7,1.3-1.1,2.9-1.1,4.4c0,16.1,0,32.2-0.2,48.1c0,2.7,0.8,4.6,3.4,5.9c10.7,5.7,21.4,11.7,32.2,17.4c18.2,10,36.4,19.7,54.6,29.7
	c8.4,4.6,17,9.2,25.5,13.8c2.7,1.5,5.4,1.5,8.2,0c22.2-12.1,44.4-23.9,66.5-36c2.5-1.3,5.2-2.7,7.7-4c3.6-1.9,4.6-1.5,4.6,2.5
	c0,10.1,0,20.5,0,30.6c0,44.4,0,88.7,0,133.1c0,15.9,0,31.8-0.2,47.7C758.7,607.5,759.3,609.4,757.7,611.1z"/>
</svg>
