<?xml version="1.0" encoding="utf-8"?>
<!-- Generator: Adobe Illustrator 25.4.1, SVG Export Plug-In . SVG Version: 6.00 Build 0)  -->
<svg version="1.1" id="Layer_1" xmlns="http://www.w3.org/2000/svg" xmlns:xlink="http://www.w3.org/1999/xlink" x="0px" y="0px"
	 viewBox="0 0 200 200" style="enable-background:new 0 0 200 200;" xml:space="preserve">
<style type="text/css">
	.st0{fill:url(#SVGID_1_);}
</style>
<linearGradient id="SVGID_1_" gradientUnits="userSpaceOnUse" x1="114.1529" y1="175.0466" x2="78.9102" y2="4.8354" gradientTransform="matrix(1 0 0 -1 0 202)">
	<stop  offset="0" style="stop-color:#1EC9DB"/>
	<stop  offset="0.8803" style="stop-color:#662D91"/>
</linearGradient>
<path class="st0" d="M192,148c0-16.1,0-32.2,0-48.3c0-15.8-0.1-31.6,0.1-47.4c0-1.8-0.6-2.5-2.1-3.3c-2.7-1.3-5.3-2.8-7.9-4.2
	c-5.1-2.8-10.2-5.6-15.4-8.4c-5-2.7-10-5.4-14.9-8c-6.4-3.4-12.8-7-19.2-10.4c-8.3-4.5-16.6-8.9-25-13.4c-2.6-1.4-5.2-2.8-7.7-4.2
	c-0.6-0.3-1.1-0.4-1.8,0c-4.6,2.5-9.2,5-13.7,7.5c-8,4.4-16.1,8.7-24.1,12.9c-5.5,3-11.1,5.9-16.7,8.9c-6.4,3.5-12.7,7-19.1,10.4
	c-5.7,3.1-11.5,6.2-17.2,9.2c-1,0.5-1.5,1.2-1.4,2.3c0.1,1.9,0.1,3.7,0,5.5c-0.1,1.1,0.5,1.8,1.5,2.4c9.3,5,18.5,10.1,27.8,15
	c3.6,1.9,3.4,1.5,3.4,5.7c0,14.2,0,28.3,0,42.5c0,0.9-0.2,1.6-1.2,2c-1.7,0.8-3.3,1.8-5,2.7c-3.2,1.8-6.4,3.5-9.7,5.3
	c-0.6-0.7-0.5-1.2-0.5-1.8c0-4.3,0-8.6,0-12.9c-0.1-6.3,0-12.6-0.1-18.8c-0.1-3.6,0.1-7.2,0.1-10.8c0-3.5-0.1-7-0.1-10.6
	c0-0.8-0.5-1.2-1.1-1.6c-4.4-2.5-9.1-4.7-13.5-7.4c-0.8-0.5-1.5-0.2-1.5,0.8C6,70.3,6,70.9,6,71.5c0,23.2,0,46.4,0,69.6
	c0,2.6,0.1,5.3,0.1,7.9c0,0.8,0.2,1.6,1.2,2c0.8,0.3,1.5,0.8,2.3,1.2c5,2.7,10,5.4,14.9,8.1c5.3,2.9,10.6,5.8,15.9,8.6
	c7.9,4.1,15.6,8.4,23.5,12.6c5,2.7,10,5.4,14.9,8.1c6.3,3.4,12.7,6.8,19,10.2c1,0.6,1.8,0.5,2.8,0c1.5-0.8,2.9-1.6,4.4-2.4
	c5-2.7,10-5.3,14.9-7.9c6.8-3.7,13.5-7.4,20.3-11.1c5.9-3.2,12-6.3,17.9-9.6c5.1-2.9,10.4-5.6,15.5-8.4c1.5-0.8,2.4-1.1,0.1-2.3
	c-4.1-2.1-8.1-4.3-12.1-6.6c-1.2-0.7-2.1-0.8-3.5-0.1c-4.7,2.6-9.5,5.1-14.2,7.6c-5.2,2.8-10.4,5.6-15.6,8.4
	c-4.9,2.7-9.8,5.3-14.7,8c-2,1.1-4.1,2.1-6.2,3.2c-0.3-0.6-0.2-1.1-0.2-1.6c0-7.7-0.1-15.4,0-23.2c0-1-0.3-1.7-1.3-2.1
	c-1.6-0.8-3.2-1.7-4.7-2.5c-4.7-2.5-9.4-5.1-14.1-7.6c-5.2-2.8-10.5-5.5-15.6-8.4c-0.9-0.5-1.6-0.6-2.5-0.1
	c-4.4,2.4-8.9,4.8-13.3,7.2c-0.4,0.2-0.7,0.5-0.7,1.1c1.5,1,3.1,1.8,4.7,2.7c5.1,2.7,10.2,5.5,15.2,8.2c5.1,2.8,10.3,5.5,15.4,8.3
	c0.8,0.4,1.1,1,1.1,1.9c-0.1,5,0,10.1,0,15.2c0,0.4,0.1,0.8-0.5,1.1c-20-10.9-40.2-21.6-60.4-32.6c0.6-0.4,0.8-0.6,1.1-0.7
	c2.2-1.4,4.6-2.4,6.8-3.7c3.3-2,6.9-3.7,10.3-5.6c4.9-2.6,9.8-5.2,14.6-7.9c6.7-3.6,13.5-7.2,20.2-10.9c4.9-2.7,9.9-5.2,14.7-8
	c0.6-0.3,1.1-0.4,1.7-0.1c5,2.7,10.1,5.4,15.2,8.1c7.2,3.8,14.2,7.8,21.4,11.6c8.3,4.4,16.5,8.9,24.8,13.2c3.8,2,7.5,4.1,11.2,6.1
	c3.6,1.9,7.2,3.8,10.7,5.8c0.7,0.4,1.2,0.4,2,0c1.9-1,3.8-2,5.7-2.9c0.9-0.5,1.4-1.1,1.3-2C191.9,148.7,192,148.4,192,148z
	 M47.9,62.6c-0.8,0.5-1.5,0.6-2.4,0.2c-4.9-2.7-9.8-5.3-14.6-7.9c-0.1-0.1-0.2-0.2-0.3-0.3c0.8-1,58.5-32,60.4-32.6
	c0.3,0.3,0.2,0.8,0.2,1.1c0,4.8,0,9.6,0,14.4c0,1.2-0.3,2-1.6,2.6c-6.8,3.6-13.5,7.2-20.2,10.9C62.2,54.8,55,58.7,47.9,62.6z
	 M89.9,96.4c-3.6,1.9-7.2,4-10.9,5.9c-5.2,2.8-10.4,5.7-15.7,8.4c-2.8,1.4-5.5,3.1-8.4,4.6c-0.5-0.7-0.3-1.4-0.3-1.9
	c0-11.9,0-23.7-0.1-35.6c0-1.1,0.5-1.8,1.5-2.3c5.7-2.8,11.1-6.1,16.7-9c5.5-2.9,10.9-5.9,16.3-8.8c1.6-0.9,1.9-0.7,1.9,1.1
	c0,8.7,0,17.4,0,26.1c0,3.2-0.1,6.3,0,9.5C91.2,95.3,90.8,95.9,89.9,96.4z M175.6,132.8c-1.5-0.8-3-1.6-4.5-2.4
	c-5.7-3.1-11.3-6.1-17-9.2c-5.8-3.1-11.5-6.2-17.2-9.3c-6.9-3.7-13.8-7.5-20.8-11.3c-2.4-1.3-4.7-2.8-7.3-3.8
	c-1.1-0.5-1.9-1.1-1.8-2.4c0-0.6-0.1-1.2-0.1-1.9c0-22.8,0-45.6,0-68.4c0-0.7,0.1-1.5,0.1-2.6c20.4,10.9,40.4,21.8,60.7,32.6
	c-1.6,1.2-3.3,2-5,2.9c-3.3,1.8-6.7,3.6-10,5.4c-0.9,0.5-1.6,0.5-2.5,0.1c-3.6-2-7.3-3.9-10.9-5.8c-5.4-2.9-10.7-5.8-16-8.7
	c-1.9-1-3.8-2.1-5.8-3.1c-0.4-0.2-0.7-0.4-1.2-0.3c-0.5,0.4-0.3,0.8-0.3,1.3c0,4.7,0,9.5-0.1,14.2c0,0.8,0.2,1.4,1,1.8
	c3.2,1.7,6.3,3.4,9.5,5.1c5.4,2.9,10.7,5.8,16.1,8.8c2.5,1.4,5,2.7,7.5,4.1c0.8,0.5,1.6,0.5,2.4,0c6.6-3.6,13.1-7.1,19.6-10.6
	c0.7-0.4,1.5-0.8,2.3-1.2c1.1-0.6,1.4-0.5,1.4,0.7c0,3,0,6.1,0,9c0,13.1,0,26.2,0,39.3c0,4.7,0,9.4-0.1,14.1
	C175.9,131.7,176.1,132.3,175.6,132.8z"/>
</svg>
