<?xml version="1.0" encoding="utf-8"?>
<!-- Generator: Adobe Illustrator 25.4.1, SVG Export Plug-In . SVG Version: 6.00 Build 0)  -->
<svg version="1.1" id="Layer_1" xmlns="http://www.w3.org/2000/svg" xmlns:xlink="http://www.w3.org/1999/xlink" x="0px" y="0px"
	 viewBox="0 0 1000 1000" style="enable-background:new 0 0 1000 1000;" xml:space="preserve">
<style type="text/css">
	.st0{fill:none;stroke:#AAAAAA;stroke-miterlimit:10;}
	.st1{fill:url(#SVGID_1_);}
	.st2{fill:url(#SVGID_00000065787997094519167750000013445739640583985050_);}
	.st3{fill:url(#SVGID_00000061457527710011744180000002605832195465311916_);}
	.st4{fill:url(#SVGID_00000018939926798797499880000005188909352857558199_);}
	.st5{fill:url(#SVGID_00000146461552718990995970000016927247754708886446_);}
	.st6{fill:url(#SVGID_00000004539741642040263650000012303785709357271691_);}
	.st7{fill:url(#SVGID_00000115505664789881320100000014932121906105693063_);}
	.st8{fill:url(#SVGID_00000033349700666159643530000016405809334923154817_);}
	.st9{fill:url(#SVGID_00000036221329965415982190000010860675468340091793_);}
</style>
<path class="st0" d="M687.82,838.68H312.18c-83.32,0-150.86-67.54-150.86-150.86V312.18c0-83.32,67.54-150.86,150.86-150.86h375.65
	c83.32,0,150.86,67.54,150.86,150.86v375.65C838.68,771.14,771.14,838.68,687.82,838.68z"/>
<g>
	<linearGradient id="SVGID_1_" gradientUnits="userSpaceOnUse" x1="180.4725" y1="764.5511" x2="536.8215" y2="166.2772">
		<stop  offset="2.785515e-03" style="stop-color:#1898D5"/>
		<stop  offset="1" style="stop-color:#3CB1DC"/>
	</linearGradient>
	<path class="st1" d="M289.44,702.16c0-0.3,1.5-5.2,13-41.3c12.8-40.3,14.5-46.8,13.7-52.1c-0.4-2.8-2.6-7.7-6.4-14
		c-7.3-12.4-16.4-31.4-20.1-42.7c-14.1-41.1-16.1-87.1-5.5-129.3c7.1-28,20-55,38-79.2c8.4-11.2,26.8-30.4,39-40.8
		c-0.3-17.8-0.5-35.7-0.6-53.5c-13.9,8.7-26.9,18.6-38.6,29.4c-17.3,16.1-30.9,31.8-42.7,49.4c-24,36.1-37.9,72.9-44.2,117.5
		c-1.5,11.4-1.5,53.4,0,64.8c4.7,33.8,12.8,59.9,27.5,89.3l7.9,15.7l-2.7,9c-1.5,4.8-9.6,30.8-18.1,57.6
		c-8.5,26.7-15.7,50.5-16,52.7c-0.9,6.5,1.2,12.2,6.3,17.2c5.2,5.2,10.6,7.2,17.7,6.3c2.5-0.4,18.2-4.8,34.8-9.9
		c16.6-5.1,31.6-9.7,33.2-10.2c1.6-0.4,8.1-2.2,14.5-4.2c10.2-3,18.2-5.3,24.5-7.1c0.3-15.3,0.5-30.6,0.5-45.8
		c-17.5,4.9-55.1,15.9-66.1,19.3C293.54,702.16,289.44,702.96,289.44,702.16z"/>
	
		<linearGradient id="SVGID_00000102523823107908070510000018212624777520202656_" gradientUnits="userSpaceOnUse" x1="263.8214" y1="814.1961" x2="620.1703" y2="215.9222">
		<stop  offset="2.785515e-03" style="stop-color:#1898D5"/>
		<stop  offset="1" style="stop-color:#3CAADC"/>
	</linearGradient>
	<path style="fill:url(#SVGID_00000102523823107908070510000018212624777520202656_);" d="M480.74,252.06
		c-12.9,1.6-25.8,4.3-38.3,7.9v436.4c12.7,3.8,25.4,6.5,38.3,8V252.06z"/>
	
		<linearGradient id="SVGID_00000014594541055826435460000012236685327865513143_" gradientUnits="userSpaceOnUse" x1="365.2491" y1="874.6093" x2="721.598" y2="276.3354">
		<stop  offset="2.785515e-03" style="stop-color:#1898D5"/>
		<stop  offset="1" style="stop-color:#3CAADC"/>
	</linearGradient>
	<path style="fill:url(#SVGID_00000014594541055826435460000012236685327865513143_);" d="M480.74,729.16v-24.7
		c-12.9-1.6-25.6-4.3-38.3-8v32.8h38.3V729.16z"/>
	
		<linearGradient id="SVGID_00000090974185750699099940000014361472552691730817_" gradientUnits="userSpaceOnUse" x1="365.2491" y1="874.6093" x2="721.598" y2="276.3354">
		<stop  offset="2.785515e-03" style="stop-color:#1898D5"/>
		<stop  offset="1" style="stop-color:#3CAADC"/>
	</linearGradient>
	<path style="fill:url(#SVGID_00000090974185750699099940000014361472552691730817_);" d="M480.74,729.16v-24.7
		c-12.9-1.6-25.6-4.3-38.3-8v32.8h38.3V729.16z"/>
	
		<linearGradient id="SVGID_00000163049036268986655920000016092823184050837641_" gradientUnits="userSpaceOnUse" x1="158.1731" y1="751.2689" x2="514.522" y2="152.995">
		<stop  offset="2.785515e-03" style="stop-color:#1898D5"/>
		<stop  offset="1" style="stop-color:#3CAADC"/>
	</linearGradient>
	<path style="fill:url(#SVGID_00000163049036268986655920000016092823184050837641_);" d="M480.74,231.66h-38.3v28.3
		c12.5-3.7,25.4-6.4,38.3-7.9V231.66z"/>
	
		<linearGradient id="SVGID_00000039100628493521641310000001328825508900919988_" gradientUnits="userSpaceOnUse" x1="158.1731" y1="751.2689" x2="514.522" y2="152.995">
		<stop  offset="2.785515e-03" style="stop-color:#1898D5"/>
		<stop  offset="1" style="stop-color:#3CAADC"/>
	</linearGradient>
	<path style="fill:url(#SVGID_00000039100628493521641310000001328825508900919988_);" d="M480.74,231.66h-38.3v28.3
		c12.5-3.7,25.4-6.4,38.3-7.9V231.66z"/>
	
		<linearGradient id="SVGID_00000030458223296522288340000001840339979754546087_" gradientUnits="userSpaceOnUse" x1="318.2573" y1="846.6196" x2="674.6062" y2="248.3457">
		<stop  offset="2.785515e-03" style="stop-color:#1898D5"/>
		<stop  offset="1" style="stop-color:#3CAADC"/>
	</linearGradient>
	<path style="fill:url(#SVGID_00000030458223296522288340000001840339979754546087_);" d="M783.44,443.66
		c-9-66.1-40.4-124.6-90.6-168.7c-38.4-33.9-90.4-58-140.3-65.3c-19.8-2.9-49.7-4.4-59.5-2.9c-1.1,0.1-7.4,0.8-14,1.4
		c-29.08,2.78-58.81,11.14-86.57,23.88c0.03,1.73,0.04,3.5,0.04,5.29v44c4.07-2.27,8.35-4.55,12.13-6.48
		c11.9-5.9,24.6-10.9,37.8-14.8v-28.3h38.3v20.4c4.9-0.6,9.9-1.1,14.8-1.3c7.2-0.4,14.4-0.6,16-0.4c1.6,0.1,7.9,0.5,14,0.7
		c36,1.6,75.1,14,107.5,34.1c26.8,16.5,51.2,39.9,69.7,66.7c17.5,25.2,29.9,55.8,35.8,88c3.3,18.1,3.7,50.5,1,69.7
		c-13.9,96.9-89,174.6-185.9,192.4c-24.9,4.6-49.1,5.4-72.8,2.5v24.7h-38.3v-32.8c-13.4-4-26.6-9.2-39.9-15.7
		c-4.08-1.96-7.1-3.24-10.13-3.87v47.61c0.11,0.05,0.23,0.1,0.33,0.15c16,8,46.9,17.5,69.4,21.3c37.5,6.3,80.1,4.7,115.6-4.3
		c47.8-12.1,91.6-36.8,126.7-71.3c43.4-42.6,70.7-97,79-158C785.84,495.06,785.84,461.06,783.44,443.66z"/>
</g>
<linearGradient id="SVGID_00000000929132345677279360000016959499584152456361_" gradientUnits="userSpaceOnUse" x1="475.3877" y1="940.2109" x2="831.7366" y2="341.937">
	<stop  offset="2.785515e-03" style="stop-color:#1898D5"/>
	<stop  offset="1" style="stop-color:#3CAADC"/>
</linearGradient>
<path style="fill:url(#SVGID_00000000929132345677279360000016959499584152456361_);" d="M678.54,665.36h-25.7
	c-3.5,0-6.3-2.8-6.3-6.3v-76.7c0-3.5,2.8-6.3,6.3-6.3h25.7c3.5,0,6.3,2.8,6.3,6.3v76.7C684.84,662.56,682.04,665.36,678.54,665.36z"
	/>
<linearGradient id="SVGID_00000132058825812211949730000013466080498741775253_" gradientUnits="userSpaceOnUse" x1="442.3848" y1="920.5535" x2="798.7337" y2="322.2796">
	<stop  offset="2.785515e-03" style="stop-color:#1898D5"/>
	<stop  offset="1" style="stop-color:#3CAADC"/>
</linearGradient>
<path style="fill:url(#SVGID_00000132058825812211949730000013466080498741775253_);" d="M684.84,535.26c-3.8-6.1-11-10.2-19.1-10.2
	s-15.3,4.1-19.1,10.2v20.6c3.8,6.1,11,10.2,19.1,10.2s15.3-4.1,19.1-10.2V535.26z"/>
</svg>
